<svg xmlns="http://www.w3.org/2000/svg" width="232.18" height="232.18"><g fill="#47e0fc"><path d="M232.18 232.18H0V0h232.18v232.18zM10 222.18h212.18V10H10v212.18z"/><path d="M116.38 147.88H79.19l-7.57 23.51c-.21.88-1.02 1.49-1.93 1.45H50.85c-1.07 0-1.45-.59-1.13-1.77l32.2-92.74c.32-.97.65-2.07 1-3.3.42-2.15.63-4.33.64-6.52a.995.995 0 011.13-1.13h25.6c.75 0 1.18.27 1.29.81l36.55 103c.32 1.07-.01 1.61-1 1.61H126.2c-.74.08-1.43-.4-1.61-1.13l-8.21-23.79zm-31.4-20.29h25.44c-.67-2.15-1.42-4.56-2.25-7.25-.83-2.69-1.75-5.56-2.74-8.61l-2.9-9.18c-.97-3.06-1.85-6.01-2.66-8.85s-1.53-5.44-2.17-7.81h-.16c-.91 4.35-2.03 8.65-3.38 12.88-1.51 4.83-3.04 9.77-4.59 14.81-1.55 5.04-3.08 9.71-4.59 14zm84.85-43.14a11.7 11.7 0 01-8.85-3.54c-2.3-2.49-3.52-5.79-3.38-9.18-.12-3.36 1.2-6.61 3.62-8.94 2.4-2.3 5.62-3.55 8.94-3.46 3.87 0 6.9 1.15 9.1 3.46 2.24 2.42 3.43 5.64 3.3 8.94.14 3.4-1.11 6.71-3.46 9.18a12.357 12.357 0 01-9.27 3.54zm-11.11 86.78v-77c0-1 .43-1.45 1.29-1.45h19.8c.86 0 1.29.48 1.29 1.45v77c0 1.07-.43 1.61-1.29 1.61h-19.64c-.97 0-1.45-.55-1.45-1.62z"/></g></svg>