<svg xmlns="http://www.w3.org/2000/svg" width="155.46" height="144"><path d="M133.34 0H10.63C4.76 0 0 4.65 0 10.38v123.23C0 139.34 4.76 144 10.63 144h122.72c5.87 0 10.66-4.65 10.66-10.39V10.38c0-5.73-4.79-10.38-10.66-10.38zM42.71 122.71H21.35V53.99h21.36v68.72zM32.04 44.59c-6.85 0-12.39-5.55-12.39-12.39s5.54-12.38 12.39-12.38 12.38 5.55 12.38 12.38-5.55 12.39-12.38 12.39zm90.67 78.12h-21.34V89.29c0-7.97-.15-18.22-11.1-18.22s-12.82 8.68-12.82 17.64v34H56.11V53.99H76.6v9.39h.29c2.85-5.4 9.82-11.1 20.21-11.1 21.63 0 25.62 14.23 25.62 32.74v37.69zm24.81-3.62h1.16v3.62h.63v-3.62h1.15v-.63h-2.94v.63zm7.05-.63l-1.24 3.12-1.24-3.12h-.9v4.25h.63v-3.23l1.3 3.23h.42l1.3-3.23v3.23h.62v-4.25h-.89z" fill="#ede9e4"/></svg>