<svg xmlns="http://www.w3.org/2000/svg" width="163.062" height="45"><defs><clipPath id="a"><path data-name="Rectangle 118" fill="#ede9e4" d="M0 0h163.062v45H0z"/></clipPath></defs><g data-name="Group 198"><g data-name="Group 157" clip-path="url(#a)" fill="#ede9e4"><path data-name="Path 117" d="M0 39.7l4.837-8.87c2.483 2.351 5.171 3.96 7.857 3.96 3.09 0 4.3-2.078 4.3-5.508V0h10.478v29.151C27.472 38.487 23.107 45 13.3 45A17.946 17.946 0 010 39.7"/><path data-name="Path 118" d="M76.88 44.2V0h10.479v12.532a1.64 1.64 0 002.937 1.005L100.791 0h13.5L99.984 17.124 115.432 44.2h-12.155l-9.312-16.476a1.641 1.641 0 00-2.687-.244l-3.919 4.693V44.2z"/><path data-name="Path 119" d="M150.317 33.985V44.2h-30.359V0h29.957v10.206h-19.478v6.585h12.357V26.6h-12.357v7.389z"/><path data-name="Path 120" d="M152.682 39.074a5.19 5.19 0 115.19 5.236 5.253 5.253 0 01-5.19-5.236m8.875 0a3.688 3.688 0 10-3.686 3.823 3.777 3.777 0 003.686-3.823m-6.373 0a2.816 2.816 0 015.052-1.812l-.952 1.029a1.771 1.771 0 00-1.29-.66 1.451 1.451 0 000 2.888 1.771 1.771 0 001.29-.66l.952 1.028a2.816 2.816 0 01-5.052-1.812"/><path data-name="Path 121" d="M70.633 44.2H33.96v-8.94L47.931 0h8.732l13.97 35.26zm-20.44-23.806l-4.662 11.771a2.262 2.262 0 002.1 3.094h9.324a2.262 2.262 0 002.1-3.094l-4.657-11.771a2.262 2.262 0 00-4.205 0"/></g></g></svg>